<?xml version="1.0" encoding="UTF-8" standalone="no"?>
<!-- Created with Inkscape (http://www.inkscape.org/) -->

<svg
   xmlns:dc="http://purl.org/dc/elements/1.1/"
   xmlns:cc="http://creativecommons.org/ns#"
   xmlns:rdf="http://www.w3.org/1999/02/22-rdf-syntax-ns#"
   xmlns:svg="http://www.w3.org/2000/svg"
   xmlns="http://www.w3.org/2000/svg"
   xmlns:sodipodi="http://sodipodi.sourceforge.net/DTD/sodipodi-0.dtd"
   xmlns:inkscape="http://www.inkscape.org/namespaces/inkscape"
   width="111.9079mm"
   height="23.908617mm"
   viewBox="0 0 111.9079 23.908617"
   version="1.1"
   id="svg8"
   inkscape:version="0.92.5 (2060ec1f9f, 2020-04-08)"
   sodipodi:docname="logo-neg.svg">
  <defs
     id="defs2">
    <inkscape:path-effect
       effect="ellipse_5pts"
       id="path-effect846"
       is_visible="true" />
  </defs>
  <sodipodi:namedview
     id="base"
     pagecolor="#ffffff"
     bordercolor="#666666"
     borderopacity="1.0"
     inkscape:pageopacity="0.0"
     inkscape:pageshadow="2"
     inkscape:zoom="1.4142136"
     inkscape:cx="138.05158"
     inkscape:cy="-19.997176"
     inkscape:document-units="mm"
     inkscape:current-layer="layer1"
     showgrid="false"
     inkscape:window-width="1920"
     inkscape:window-height="990"
     inkscape:window-x="0"
     inkscape:window-y="33"
     inkscape:window-maximized="1"
     fit-margin-top="0"
     fit-margin-left="0"
     fit-margin-right="0"
     fit-margin-bottom="0" />
  <metadata
     id="metadata5">
    <rdf:RDF>
      <cc:Work
         rdf:about="">
        <dc:format>image/svg+xml</dc:format>
        <dc:type
           rdf:resource="http://purl.org/dc/dcmitype/StillImage" />
        <dc:title></dc:title>
      </cc:Work>
    </rdf:RDF>
  </metadata>
  <g
     inkscape:label="Layer 1"
     inkscape:groupmode="layer"
     id="layer1"
     transform="translate(-48.376374,-115.80275)">
    <path
       style="font-style:normal;font-variant:normal;font-weight:normal;font-stretch:normal;font-size:28.70179367px;line-height:1.25;font-family:Cantarell;-inkscape-font-specification:Cantarell;letter-spacing:-9.86624146px;word-spacing:0px;fill:#729fcf;fill-opacity:1;stroke:none;stroke-width:0.99999994"
       d="m 506.2168,437.67969 c -6.6534,0 -11.93459,1.19353 -15.83985,3.58008 -3.83293,2.38654 -6.54373,5.78577 -8.13476,10.19726 -1.59103,4.33917 -2.38672,9.54626 -2.38672,15.62109 v 31.67579 c 0,5.93019 0.79569,11.10023 2.38672,15.51171 1.59103,4.33917 4.30183,7.73841 8.13476,10.19727 3.90526,2.38654 9.18645,3.58008 15.83985,3.58008 6.58107,0 11.67894,-1.12138 15.29492,-3.36328 3.68829,-2.31423 6.25478,-5.42288 7.70117,-9.32813 1.51871,-3.97757 2.2793,-8.46308 2.2793,-13.45312 v -7.5918 h -18.98438 v 9.2207 c 0,1.73567 -0.10921,3.43431 -0.32617,5.09766 -0.21696,1.66335 -0.75912,3.03825 -1.62695,4.12305 -0.86784,1.01247 -2.31295,1.51757 -4.33789,1.51757 -1.88031,0 -3.32737,-0.47 -4.33985,-1.41015 -0.94015,-1.01247 -1.59152,-2.31327 -1.95312,-3.9043 -0.28928,-1.66335 -0.4336,-3.4712 -0.4336,-5.42383 v -41.33203 c 0,-1.80798 0.10922,-3.50663 0.32618,-5.09765 0.28927,-1.66335 0.90359,-3.03826 1.84375,-4.12305 1.01247,-1.08479 2.53169,-1.62695 4.55664,-1.62695 2.09726,0 3.57943,0.54216 4.44726,1.62695 0.86784,1.01247 1.37294,2.31522 1.51758,3.90625 0.21696,1.59103 0.32617,3.25457 0.32617,4.99023 v 8.78711 h 18.98438 v -7.59375 c 0,-4.99004 -0.76059,-9.40144 -2.2793,-13.23437 -1.51871,-3.83293 -4.12225,-6.79922 -7.81055,-8.89649 -3.61597,-2.16958 -8.67679,-3.2539 -15.18554,-3.2539 z"
       transform="scale(0.26458333)"
       id="path841"
       inkscape:connector-curvature="0" />
    <path
       style="font-style:normal;font-variant:normal;font-weight:normal;font-stretch:normal;font-size:28.70179367px;line-height:1.25;font-family:Cantarell;-inkscape-font-specification:Cantarell;letter-spacing:-9.86624146px;word-spacing:0px;fill:#ffffff;fill-opacity:1;stroke:none;stroke-width:0.99999994"
       d="m 199.4375,438.87305 -16.59766,87.86718 h 18.33399 l 3.03711,-18.54882 h 12.9082 l 2.92969,18.54882 h 17.89844 l -16.38086,-87.86718 z m 11.17383,23.43164 4.66406,34.27929 h -9.33008 z"
       transform="scale(0.26458333)"
       id="path839"
       inkscape:connector-curvature="0" />
    <path
       style="font-style:normal;font-variant:normal;font-weight:normal;font-stretch:normal;font-size:28.70179367px;line-height:1.25;font-family:Cantarell;-inkscape-font-specification:Cantarell;letter-spacing:-9.86624146px;word-spacing:0px;fill:#ffffff;fill-opacity:1;stroke:none;stroke-width:0.99999994"
       d="m 246.8418,438.87305 v 87.86718 h 19.41797 v -39.37695 h 5.5332 l 9.6543,39.37695 h 20.06835 L 289.47461,484.2168 c 2.89278,-1.37407 5.09848,-3.07271 6.61719,-5.09766 1.59103,-2.09726 2.67535,-4.55649 3.2539,-7.37695 0.57856,-2.82046 0.86914,-6.03833 0.86914,-9.6543 0,-6.14716 -1.23059,-10.88424 -3.68945,-14.21094 -2.38654,-3.39901 -5.74872,-5.74903 -10.08789,-7.05078 -4.33917,-1.30175 -9.4741,-1.95312 -15.4043,-1.95312 z m 19.41797,13.01757 h 6.29296 c 3.6883,0 6.21968,1.04922 7.59375,3.14649 1.37407,2.09726 2.06055,5.02454 2.06055,8.78516 0,2.6035 -0.32569,4.84625 -0.97656,6.72656 -0.57856,1.80799 -1.62778,3.21799 -3.14649,4.23047 -1.5187,0.94015 -3.65225,1.41015 -6.40039,1.41015 h -5.42382 z"
       transform="scale(0.26458333)"
       id="path837"
       inkscape:connector-curvature="0" />
    <path
       style="font-style:normal;font-variant:normal;font-weight:normal;font-stretch:normal;font-size:28.70179367px;line-height:1.25;font-family:Cantarell;-inkscape-font-specification:Cantarell;letter-spacing:-9.86624146px;word-spacing:0px;fill:#ffffff;fill-opacity:1;stroke:none;stroke-width:0.99999994"
       d="m 311.92969,438.87305 v 87.86718 h 39.70312 v -13.125 h -20.28515 v -26.25195 h 15.29492 v -13.45117 h -15.29492 v -21.80469 h 20.06836 v -13.23437 z"
       transform="scale(0.26458333)"
       id="path835"
       inkscape:connector-curvature="0" />
    <path
       style="font-style:normal;font-variant:normal;font-weight:normal;font-stretch:normal;font-size:28.70179367px;line-height:1.25;font-family:Cantarell;-inkscape-font-specification:Cantarell;letter-spacing:-9.86624146px;word-spacing:0px;fill:#ffffff;fill-opacity:1;stroke:none;stroke-width:0.99999994"
       d="m 360.41992,438.87305 v 87.86718 h 16.59766 v -45.56054 l 18.00781,45.56054 h 13.125 V 438.87305 H 392.0957 v 42.30664 l -18.00781,-42.30664 z"
       transform="scale(0.26458333)"
       id="path833"
       inkscape:connector-curvature="0" />
    <path
       style="font-style:normal;font-variant:normal;font-weight:normal;font-stretch:normal;font-size:28.70179367px;line-height:1.25;font-family:Cantarell;-inkscape-font-specification:Cantarell;letter-spacing:-9.86624146px;word-spacing:0px;fill:#ffffff;fill-opacity:1;stroke:none;stroke-width:0.99999994"
       d="m 433.64258,438.87305 -16.5957,87.86718 h 18.33203 l 3.03711,-18.54882 h 12.91015 l 2.92774,18.54882 h 17.90039 l -16.38086,-87.86718 z m 11.17383,23.43164 4.66406,34.27929 h -9.32813 z"
       transform="scale(0.26458333)"
       id="path831"
       inkscape:connector-curvature="0" />
    <path
       style="font-style:normal;font-variant:normal;font-weight:normal;font-stretch:normal;font-size:28.70179367px;line-height:1.25;font-family:Cantarell;-inkscape-font-specification:Cantarell;letter-spacing:-9.86624146px;word-spacing:0px;fill:#729fcf;fill-opacity:1;stroke:none;stroke-width:0.99999994"
       d="m 543.31641,438.87305 -1.51953,87.86718 h 13.99414 l 1.30078,-58.90429 10.84961,58.90429 h 12.25781 l 10.19726,-58.46875 1.62696,58.46875 h 13.77539 l -1.51758,-87.86718 h -20.06836 l -10.41406,51.09375 -9.6543,-51.09375 z"
       transform="scale(0.26458333)"
       id="path829"
       inkscape:connector-curvature="0" />
  </g>
</svg>
